<svg width="132" height="78" viewBox="0 0 132 78" fill="none" xmlns="http://www.w3.org/2000/svg">
<g clip-path="url(#clip0_1343_14578)">
<rect x="16" y="6" width="100" height="71" rx="6" fill="#DCF2FE" stroke="#333333"/>
<ellipse rx="21.7214" ry="22.1473" transform="matrix(0 -1 -1 0 67.1471 21.7215)" fill="#C2E9FF"/>
<path d="M50.0288 2H49.0131L47.7478 2.80109V3.7594L48.9182 3.02569H48.9482V7.11099H50.0288V2Z" fill="#30A7E9"/>
<path d="M60.7243 13.0037H66.3532V11.6389H63.0375V11.5849L64.1903 10.4553C65.8134 8.97487 66.2491 8.23464 66.2491 7.33635C66.2491 5.96769 65.131 5 63.4385 5C61.7807 5 60.6434 5.99083 60.6472 7.54068H62.2318C62.2279 6.78503 62.706 6.32239 63.4269 6.32239C64.1209 6.32239 64.6375 6.75419 64.6375 7.44815C64.6375 8.07657 64.252 8.50837 63.5349 9.19848L60.7243 11.8008V13.0037Z" fill="#2782C4"/>
<path d="M75.5489 6.15591H77.9054V5.58454H76.5173V5.56195L76.9999 5.08904C77.6794 4.46925 77.8618 4.15935 77.8618 3.78328C77.8618 3.2103 77.3937 2.80518 76.6852 2.80518C75.9911 2.80518 75.515 3.21998 75.5166 3.86882H76.18C76.1784 3.55247 76.3785 3.35879 76.6803 3.35879C76.9709 3.35879 77.1871 3.53956 77.1871 3.83009C77.1871 4.09318 77.0257 4.27395 76.7255 4.56286L75.5489 5.65233V6.15591Z" fill="#2782C4"/>
<path d="M86.171 12.4651C86.7721 12.4651 87.202 12.1345 87.2007 11.6771C87.202 11.3439 86.9903 11.1061 86.597 11.0565V11.0356C86.8963 10.982 87.1027 10.7703 87.1014 10.4698C87.1027 10.0477 86.7329 9.71582 86.1789 9.71582C85.6301 9.71582 85.2172 10.0373 85.2093 10.4998H85.7516C85.7581 10.296 85.945 10.164 86.1763 10.164C86.4049 10.164 86.5578 10.3025 86.5565 10.5037C86.5578 10.7141 86.3788 10.8565 86.1214 10.8565H85.8718V11.2721H86.1214C86.4245 11.2721 86.614 11.4236 86.6127 11.6392C86.614 11.8522 86.4311 11.9986 86.1724 11.9986C85.9228 11.9986 85.7359 11.8679 85.7255 11.6719H85.1558C85.1649 12.1397 85.583 12.4651 86.171 12.4651Z" fill="#30A7E9"/>
<path d="M51.6406 36.5299H54.2274V37.4773H55.3169V36.5299H55.9853V35.6168H55.3169V32.0879H53.8906L51.6406 35.6326V36.5299ZM54.2485 35.6168H52.788V35.5747L54.2064 33.33H54.2485V35.6168Z" fill="#2782C4"/>
<path d="M75.8018 22.8496C77.526 22.8496 78.6982 21.7266 78.6944 20.1612C78.6982 18.679 77.6621 17.6128 76.2669 17.6128C75.5863 17.6128 75.0002 17.8963 74.728 18.2782H74.6826L74.883 16.3385H78.2671V15H73.5331L73.1664 19.0836L74.6221 19.3445C74.8603 19.0231 75.3216 18.8227 75.7791 18.8227C76.558 18.8265 77.1177 19.3899 77.1177 20.2028C77.1177 21.0082 76.5694 21.564 75.8018 21.564C75.1515 21.564 74.6259 21.1557 74.5881 20.5545H73C73.0302 21.893 74.1986 22.8496 75.8018 22.8496Z" fill="#30A7E9"/>
<path d="M72.0066 33.1612C73.1252 33.1661 73.8881 32.4326 73.8856 31.4097C73.8881 30.4677 73.2306 29.7883 72.3402 29.7883C71.7883 29.7883 71.3001 30.0532 71.0744 30.4972H71.0401C71.045 29.5184 71.3884 28.9101 72.0434 28.9101C72.4285 28.9101 72.7057 29.121 72.7866 29.4718H73.8341C73.7335 28.6451 73.0467 28 72.0434 28C70.8021 28 70.0049 29.0057 70 30.6934C69.9976 32.5332 70.9739 33.1563 72.0066 33.1612ZM72.0017 32.3271C71.5111 32.3271 71.148 31.9322 71.148 31.4416C71.1505 30.9534 71.5209 30.5561 72.009 30.5561C72.4996 30.5561 72.8578 30.9412 72.8553 31.4391C72.8578 31.942 72.4923 32.3271 72.0017 32.3271Z" fill="#30A7E9"/>
<path d="M47.6223 22.036C48.6599 22.0406 49.3675 21.3602 49.3653 20.4114C49.3675 19.5376 48.7577 18.9073 47.9317 18.9073C47.4198 18.9073 46.967 19.1531 46.7576 19.5649H46.7258C46.7303 18.657 47.0489 18.0927 47.6564 18.0927C48.0137 18.0927 48.2708 18.2884 48.3459 18.6138H49.3175C49.2242 17.847 48.5871 17.2485 47.6564 17.2485C46.5051 17.2485 45.7655 18.1815 45.761 19.7469C45.7587 21.4535 46.6643 22.0315 47.6223 22.036ZM47.6177 21.2624C47.1626 21.2624 46.8259 20.896 46.8259 20.4409C46.8282 19.9881 47.1717 19.6195 47.6246 19.6195C48.0796 19.6195 48.4119 19.9768 48.4096 20.4387C48.4119 20.9051 48.0728 21.2624 47.6177 21.2624Z" fill="#30A7E9"/>
<path d="M59.3244 26.1309H60.4365L62.5512 21.9288V21.0356H58.9761V21.9164H61.4366V21.9512L59.3244 26.1309Z" fill="#30A7E9"/>
<path d="M78.9856 38C78.1843 37.9965 77.6437 38.5214 77.6472 39.2421C77.649 39.9104 78.1126 40.395 78.7476 40.395C79.1413 40.395 79.4912 40.2043 79.6504 39.8894H79.6749C79.6731 40.5997 79.4264 41.0318 78.9593 41.0318C78.6847 41.0318 78.487 40.8814 78.4292 40.6207H77.6822C77.7522 41.2243 78.2421 41.6809 78.9593 41.6809C79.8463 41.6809 80.4184 40.9636 80.4166 39.7477C80.4149 38.4496 79.7221 38.0035 78.9856 38ZM78.9908 38.5948C79.339 38.5948 79.5961 38.8783 79.5996 39.2194C79.6014 39.5623 79.3302 39.8457 78.9838 39.8457C78.6339 39.8457 78.3838 39.5728 78.382 39.2211C78.3785 38.8713 78.6392 38.5948 78.9908 38.5948Z" fill="#30A7E9"/>
<path d="M85.4839 31.867C86.5526 31.867 87.3206 31.2957 87.3229 30.5277C87.3206 29.9355 86.8649 29.452 86.2959 29.3572V29.3248C86.7909 29.223 87.1448 28.7951 87.1471 28.2746C87.1448 27.5413 86.4416 27 85.4839 27C84.5239 27 83.8207 27.5413 83.823 28.2746C83.8207 28.7928 84.17 29.223 84.6743 29.3248V29.3572C84.096 29.452 83.6449 29.9355 83.6472 30.5277C83.6449 31.2957 84.4152 31.867 85.4839 31.867ZM85.4839 31.1314C85.0074 31.1314 84.6882 30.8492 84.6882 30.449C84.6882 30.0396 85.0236 29.7435 85.4839 29.7435C85.9419 29.7435 86.2797 30.0396 86.2797 30.449C86.2797 30.8515 85.9581 31.1314 85.4839 31.1314ZM85.4839 29.0148C85.0837 29.0148 84.7992 28.7534 84.7992 28.3787C84.7992 28.0086 85.0791 27.7541 85.4839 27.7541C85.8864 27.7541 86.1686 28.0109 86.1686 28.3787C86.1686 28.7534 85.8818 29.0148 85.4839 29.0148Z" fill="#2782C4"/>
<path d="M82.9719 56.7445V68.4678H92.8227V56.3375L92.0086 55.157L90.7467 52.7147L88.8743 50.8829L88.0601 50.6387H87.2867L85.6992 51.7377L84.3152 53.8137L82.9719 56.7445Z" fill="#A0DCFD"/>
<path d="M69.8821 68.3922C73.0179 68.3922 79.3695 68.1284 81.92 59.8173C84.3935 51.9569 86.4823 50.5277 87.8565 50.4728C89.9446 50.3893 92.5837 55.145 93.9579 59.8173C95.3321 64.4895 98.85 68.3922 106.381 68.3922" stroke="#2783C5" stroke-linecap="round" stroke-linejoin="round"/>
<path fill-rule="evenodd" clip-rule="evenodd" d="M87.9568 49.9263C88.2963 49.9263 88.5715 50.2015 88.5715 50.541V68.4108C88.5715 68.7503 88.2963 69.0255 87.9568 69.0255C87.6173 69.0255 87.342 68.7503 87.342 68.4108V50.541C87.342 50.2015 87.6173 49.9263 87.9568 49.9263Z" fill="#2783C5"/>
<path fill-rule="evenodd" clip-rule="evenodd" d="M67.5001 47.0563C67.8396 47.0563 68.0001 47.5157 68.0001 47.8552L68.0001 68.0249L109.329 68.0249C109.668 68.0249 110 68.2167 110 68.5562C110 68.8957 109.668 69.1016 109.329 69.1016L67.6828 69.1016C67.3433 69.1016 67.0001 68.8141 67.0001 68.4746L67.0001 47.8551C67.0001 47.5156 67.1606 47.0563 67.5001 47.0563Z" fill="#2783C5"/>
<path fill-rule="evenodd" clip-rule="evenodd" d="M67.3563 72.0616C67.0433 72.0614 66.7897 71.8075 66.7899 71.4945L66.7913 69.0055L63.9797 69.0055C63.6666 69.0055 63.4129 68.7517 63.4129 68.4387C63.4129 68.1256 63.6666 67.8719 63.9797 67.8719L67.3584 67.8719C67.5088 67.8719 67.653 67.9316 67.7593 68.038C67.8656 68.1444 67.9253 68.2886 67.9252 68.439L67.9234 71.4951C67.9233 71.8081 67.6694 72.0617 67.3563 72.0616Z" fill="#2783C5"/>
<circle cx="38" cy="55" r="15" fill="white" stroke="#333333"/>
<ellipse cx="33.7813" cy="46.8873" rx="1.20514" ry="1.19788" fill="white"/>
<path d="M35.3516 48.08C34.8584 48.074 34.5379 47.7144 34.5463 47.1763C34.5539 46.6952 34.9141 46.3053 35.3555 46.3003C35.8126 46.2953 36.1922 46.705 36.1929 47.2046C36.1937 47.7218 35.8437 48.0859 35.3516 48.08V48.08ZM41.9998 47.5161C42.0098 46.7161 41.6744 46.1415 41.0635 45.7543C40.7508 45.5561 40.4019 45.4044 40.0519 45.2984C38.8739 44.9413 37.6677 44.9571 36.4637 45.0763C35.7011 45.1517 34.9491 45.3011 34.2877 45.7704C33.8508 46.0804 33.5966 46.485 33.6139 47.0722C33.6283 47.5638 33.6335 48.0574 33.6053 48.5477C33.5809 48.9735 33.742 49.0976 34.1185 49.0931C35.2067 49.0802 36.2951 49.0989 37.3835 49.1064C37.6458 49.1082 37.8783 49.1154 37.8756 49.5258C37.8728 49.9445 37.6259 49.9289 37.3715 49.9291C36.4008 49.9299 35.4301 49.9263 34.4594 49.9244C34.4593 49.9313 34.4593 49.9383 34.4593 49.9452C33.5622 49.9432 32.6649 49.9497 31.7678 49.9376C30.7028 49.9231 29.9753 50.4833 29.5387 51.488C28.8732 53.0195 28.9131 54.6362 29.1841 56.2449C29.2841 56.8386 29.5223 57.426 29.7928 57.9601C30.0929 58.5528 30.6009 58.9292 31.2508 58.9814C31.6751 59.0155 32.1034 58.9886 32.5297 58.9997C32.7751 59.0062 32.8695 58.8915 32.8644 58.6287C32.8546 58.1212 32.8627 57.613 32.8635 57.1052C32.8666 55.0159 33.8005 54.0204 35.7465 54.0292C37.0555 54.0354 38.3646 54.0534 39.6734 54.0389C41.1729 54.0225 41.9814 53.1352 41.9926 51.5154C42.0017 50.1823 41.9831 48.849 41.9998 47.5161" fill="#296CA5"/>
<path d="M40.6484 60.92C41.1417 60.926 41.4621 61.2856 41.4536 61.8237C41.4461 62.3046 41.0858 62.6947 40.6445 62.6995C40.1873 62.7047 39.8078 62.295 39.807 61.7954C39.8063 61.2782 40.1563 60.9141 40.6484 60.92ZM46.8159 52.7551C46.7159 52.1613 46.4777 51.574 46.2072 51.0399C45.9071 50.4472 45.3991 50.0708 44.7492 50.0186C44.3249 49.9845 43.8965 50.0114 43.4703 50.0003C43.2248 49.9938 43.1304 50.1085 43.1355 50.3711C43.1454 50.8788 43.1373 51.387 43.1366 51.8948C43.1334 53.9841 42.1995 54.9796 40.2535 54.9708C38.9445 54.9646 37.6353 54.9466 36.3265 54.9611C34.8271 54.9775 34.0186 55.8648 34.0074 57.4846C33.9983 58.8177 34.0169 60.151 34.0002 61.4839C33.9902 62.2839 34.3255 62.8585 34.9364 63.2457C35.2492 63.4439 35.5981 63.5956 35.9481 63.7016C37.1261 64.0587 38.3323 64.0429 39.5362 63.9237C40.299 63.8483 41.0509 63.6989 41.7123 63.2296C42.1492 62.9196 42.4033 62.515 42.3861 61.9278C42.3717 61.4362 42.3664 60.9424 42.3947 60.4523C42.4191 60.0265 42.258 59.9024 41.8815 59.9069C40.7933 59.9198 39.7049 59.9011 38.6165 59.8936C38.3543 59.8918 38.1217 59.8846 38.1244 59.4742C38.1272 59.0555 38.3741 59.0711 38.6285 59.0709C39.5992 59.0701 40.5698 59.0737 41.5406 59.0756C41.5406 59.0687 41.5406 59.0617 41.5406 59.0548C42.4378 59.0568 43.3351 59.0503 44.2322 59.0624C45.2972 59.0769 46.0246 58.5167 46.4613 57.512C47.1268 55.9805 47.0869 54.3638 46.8159 52.7551Z" fill="#FFC452"/>
</g>
<defs>
<clipPath id="clip0_1343_14578">
<rect width="132" height="78" fill="white"/>
</clipPath>
</defs>
</svg>
