<svg width="132" height="78" viewBox="0 0 132 78" fill="none" xmlns="http://www.w3.org/2000/svg">
<g clip-path="url(#clip0_1343_14549)">
<rect x="15.9995" y="6" width="100" height="71" rx="6" fill="#E9EFFE" stroke="#333333"/>
<g clip-path="url(#clip1_1343_14549)">
<path d="M20.9995 36.5544C20.9995 35.6962 21.5502 35.0005 22.2296 35.0005H109.769C110.449 35.0005 111 35.6962 111 36.5544V69.4465C111 70.3048 110.449 71.0005 109.769 71.0005H22.2296C21.5502 71.0005 20.9995 70.3048 20.9995 69.4465V36.5544Z" fill="#FCFDFF"/>
<path fill-rule="evenodd" clip-rule="evenodd" d="M62.0874 56.7673C61.883 57.1586 61.6441 57.4639 61.3482 57.5513C61.0942 57.6264 60.8684 57.628 60.6649 57.5655C60.4614 57.503 60.2898 57.3795 60.1407 57.221C59.863 56.9257 59.6507 56.4928 59.4474 56.0784C59.4375 56.0581 59.4276 56.0379 59.4177 56.0178C59.1987 55.5721 58.9823 55.1449 58.6918 54.8354C58.4091 54.5341 58.0537 54.3422 57.5451 54.3811C57.1737 54.4095 56.8356 54.6495 56.5265 55.0507C56.217 55.4525 55.9474 56.0029 55.7164 56.618C55.281 57.7776 54.5709 58.7015 53.7358 59.158C52.895 59.6175 51.9351 59.5975 51.0314 58.8796C50.8311 58.7206 50.6203 58.5511 50.3986 58.3707C49.6687 57.7769 48.9945 57.6807 48.3146 57.8643C47.6228 58.0511 46.921 58.5282 46.1446 59.103C46.0223 59.1936 45.8984 59.2864 45.7726 59.3806C44.3165 60.4714 42.6167 61.7446 40.39 61.7645C39.1974 61.7752 38.4018 61.62 37.8315 61.3432C37.2545 61.0632 36.9191 60.664 36.6404 60.2194C36.5416 60.0618 36.4481 59.8953 36.3549 59.7293C36.3196 59.6665 36.2844 59.6038 36.249 59.5417C36.118 59.3121 35.9791 59.0816 35.8088 58.8531C35.4706 58.3993 35.001 57.9435 34.2166 57.5415C33.4661 57.1569 32.5601 57.282 31.5999 57.721C30.6424 58.1587 29.6553 58.8975 28.761 59.6943C27.868 60.4901 27.0739 61.338 26.5026 61.9876C26.2171 62.3122 25.9877 62.5869 25.8298 62.7802C25.7508 62.8769 25.6898 62.9531 25.6486 63.0051C25.628 63.0311 25.6124 63.051 25.602 63.0643C25.5967 63.071 25.5928 63.076 25.5903 63.0793L25.5874 63.083L25.5867 63.0839C25.5867 63.0839 25.5865 63.0841 25.4699 62.9533C25.3532 62.8224 25.3533 62.8222 25.3533 62.8222L25.3544 62.8208L25.3576 62.8167C25.3604 62.8131 25.3646 62.8077 25.37 62.8008C25.3809 62.7868 25.3971 62.7663 25.4182 62.7396C25.4604 62.6863 25.5226 62.6087 25.6027 62.5106C25.7629 62.3144 25.9952 62.0364 26.2839 61.7081C26.861 61.0519 27.6651 60.193 28.5716 59.3853C29.4769 58.5786 30.4907 57.817 31.4869 57.3617C32.4804 56.9075 33.481 56.7469 34.3413 57.1879C35.1677 57.6114 35.6758 58.0998 36.0459 58.5963C36.2297 58.8429 36.3776 59.0892 36.5116 59.3239C36.5501 59.3915 36.5871 59.4574 36.6234 59.5219C36.7148 59.6847 36.8013 59.8387 36.8947 59.9878C37.1494 60.394 37.4417 60.7398 37.9505 60.9868C38.4659 61.2369 39.2143 61.3908 40.3876 61.3803C42.5206 61.3612 44.1469 60.1444 45.6109 59.0491C45.7343 58.9568 45.8565 58.8654 45.9778 58.7756C46.7508 58.2033 47.4946 57.6919 48.2449 57.4893C49.0071 57.2836 49.7714 57.397 50.5768 58.0522C50.7977 58.2318 51.0075 58.4005 51.2068 58.5588C52.0147 59.2005 52.8582 59.2157 53.6042 58.808C54.356 58.3971 55.0162 57.5511 55.426 56.4595C55.6642 55.8253 55.9508 55.2335 56.293 54.7892C56.6357 54.3443 57.0448 54.0343 57.5249 53.9976C58.1237 53.9518 58.5611 54.1832 58.9029 54.5475C59.2369 54.9033 59.4767 55.3838 59.6919 55.8219L59.7089 55.8565C59.9236 56.2937 60.1127 56.6789 60.3515 56.9328C60.4706 57.0594 60.5983 57.1485 60.7435 57.1931C60.8886 57.2377 61.0608 57.2406 61.2724 57.1781C61.4422 57.1279 61.6233 56.9345 61.8176 56.5625C62.0084 56.1974 62.1925 55.6978 62.3817 55.1023C62.5469 54.5826 62.7131 53.9987 62.8896 53.3787C62.915 53.2898 62.9405 53.2001 62.9663 53.1097C63.1713 52.3912 63.3907 51.6333 63.6361 50.8868C64.1257 49.3978 64.725 47.934 65.536 46.9056C66.354 45.8684 67.3925 45.2695 68.7381 45.5358C70.0808 45.8015 71.0984 46.8578 71.9082 48.2731C72.7171 49.687 73.3313 51.4808 73.8634 53.2635C74.0592 53.9195 74.2434 54.5721 74.4221 55.2052C74.7323 56.3039 75.0258 57.3438 75.3346 58.2409C75.5769 58.9452 75.8245 59.5481 76.09 60.0099C76.3565 60.4735 76.6309 60.7772 76.9215 60.9109C77.2317 61.0537 77.49 61.0761 77.7133 61.0199C77.9374 60.9635 78.1398 60.8243 78.3328 60.6172C78.6976 60.2255 79.0046 59.6207 79.3427 58.9545C79.3695 58.9018 79.3964 58.8487 79.4236 58.7953C79.7868 58.0819 80.1888 57.323 80.7268 56.7957C81.2744 56.259 81.9597 55.9647 82.872 56.1678C84.0989 56.4409 85.0189 56.7338 85.7391 56.963C86.0345 57.0571 86.2963 57.1404 86.5318 57.2073C87.3449 57.4381 87.8441 57.4736 88.4043 57.1447C88.5779 57.0428 88.7239 56.8851 88.8829 56.6915C88.9158 56.6514 88.9495 56.6094 88.9842 56.5663C89.1117 56.4075 89.2519 56.233 89.4134 56.0763C89.8409 55.6614 90.4202 55.3646 91.4328 55.523C91.8271 55.5847 92.1921 55.8213 92.5215 56.1493C93.3871 57.0112 94.4296 57.7469 95.483 58.0838C96.5345 58.4201 97.5851 58.3561 98.49 57.6433C99.5209 56.8311 100.617 56.046 101.566 55.5379C104.852 53.7796 104.893 56.1358 105.913 55.8746C106.423 55.744 106.847 55.6599 107.143 55.6084C107.292 55.5827 107.408 55.5651 107.488 55.5539C107.528 55.5484 107.558 55.5444 107.579 55.5417C107.589 55.5404 107.597 55.5395 107.603 55.5388L107.609 55.5381L107.611 55.5379C107.611 55.5379 107.611 55.5378 107.614 55.5718L107.611 55.5379C107.698 55.5282 107.777 55.6059 107.785 55.7115C107.793 55.8172 107.728 55.9107 107.641 55.9205L107.639 55.9206L107.634 55.9213C107.629 55.9218 107.622 55.9227 107.612 55.924C107.592 55.9264 107.563 55.9302 107.525 55.9356C107.448 55.9464 107.334 55.9636 107.189 55.9888C106.898 56.0392 106.482 56.1218 105.979 56.2505C104.973 56.508 104.026 53.9438 101.695 55.8891C100.77 56.3846 99.6904 57.1566 98.6643 57.965C97.663 58.7538 96.5128 58.8107 95.4013 58.4552C94.2915 58.1003 93.2086 57.3319 92.3185 56.4455C92.0178 56.1461 91.7073 55.9534 91.3918 55.9041C90.4611 55.7584 89.9698 56.0296 89.6132 56.3757C89.4687 56.516 89.3464 56.668 89.2208 56.8242C89.1842 56.8698 89.1472 56.9157 89.1094 56.9618C88.9463 57.1604 88.7688 57.3581 88.5439 57.4901C87.8824 57.8785 87.2925 57.818 86.4588 57.5813C86.2118 57.5112 85.9434 57.4257 85.6434 57.3302C84.9262 57.1018 84.0287 56.816 82.8141 56.5457C81.9999 56.3645 81.4081 56.6232 80.9279 57.0939C80.4381 57.5739 80.0616 58.2767 79.6953 58.9963C79.6662 59.0534 79.6371 59.1108 79.608 59.1681C79.2786 59.8181 78.9469 60.4724 78.5447 60.9041C78.3219 61.1433 78.0708 61.3224 77.7785 61.3961C77.4854 61.4699 77.1646 61.4341 76.8078 61.2699C76.4314 61.0967 76.1113 60.7217 75.828 60.2288C75.5436 59.7342 75.286 59.1025 75.0402 58.3882C74.7279 57.481 74.428 56.4187 74.1149 55.3101C73.9369 54.6796 73.7546 54.034 73.5635 53.3936C73.0327 51.6155 72.4299 49.8617 71.6458 48.4913C70.8625 47.1222 69.9109 46.1573 68.6864 45.915C67.4648 45.6732 66.5273 46.2064 65.767 47.1703C64.9999 48.143 64.4188 49.5493 63.9325 51.0284C63.69 51.7659 63.4726 52.5165 63.2677 53.2347C63.242 53.3248 63.2165 53.4144 63.1911 53.5034C63.0149 54.1224 62.8467 54.7133 62.6794 55.2397C62.4885 55.8406 62.2954 56.369 62.0874 56.7673ZM25.3613 63.0939C25.2969 63.0216 25.2933 62.8999 25.3533 62.8222L25.4699 62.9533L25.5867 63.0839C25.5268 63.1616 25.4257 63.1662 25.3613 63.0939Z" fill="#709AFC"/>
<path d="M25.5867 63.0839L25.5874 63.083L25.5903 63.0793C25.5928 63.076 25.5967 63.071 25.602 63.0643C25.6124 63.051 25.628 63.0311 25.6486 63.0051C25.6898 62.9531 25.7508 62.8769 25.8298 62.7802C25.9877 62.5869 26.2171 62.3122 26.5026 61.9876C27.0739 61.338 27.868 60.4901 28.761 59.6943C29.6553 58.8975 30.6424 58.1587 31.5999 57.721C32.5601 57.282 33.4661 57.1569 34.2166 57.5415C35.001 57.9435 35.4706 58.3993 35.8088 58.8531C35.9791 59.0816 36.118 59.3121 36.249 59.5417C36.2844 59.6038 36.3196 59.6665 36.3549 59.7293C36.4481 59.8953 36.5416 60.0618 36.6404 60.2194C36.9191 60.664 37.2545 61.0632 37.8315 61.3432C38.4018 61.62 39.1974 61.7752 40.39 61.7645C42.6167 61.7446 44.3165 60.4714 45.7726 59.3806C45.8984 59.2864 46.0223 59.1936 46.1446 59.103C46.921 58.5282 47.6228 58.0511 48.3146 57.8643C48.9945 57.6807 49.6687 57.7769 50.3986 58.3707C50.6203 58.5511 50.8311 58.7206 51.0314 58.8796C51.9351 59.5975 52.895 59.6175 53.7358 59.158C54.5709 58.7015 55.281 57.7776 55.7164 56.618C55.9474 56.0029 56.217 55.4525 56.5265 55.0507C56.8356 54.6495 57.1737 54.4095 57.5451 54.3811C58.0537 54.3422 58.4091 54.5341 58.6918 54.8354C58.9823 55.1449 59.1987 55.5721 59.4177 56.0178C59.4276 56.0379 59.4375 56.0581 59.4474 56.0784C59.6507 56.4928 59.863 56.9257 60.1407 57.221C60.2898 57.3795 60.4614 57.503 60.6649 57.5655C60.8684 57.628 61.0942 57.6264 61.3482 57.5513C61.6441 57.4639 61.883 57.1586 62.0874 56.7673C62.2954 56.369 62.4885 55.8406 62.6794 55.2397C62.8467 54.7133 63.0149 54.1224 63.1911 53.5034C63.2165 53.4144 63.242 53.3248 63.2677 53.2347C63.4726 52.5165 63.69 51.7659 63.9325 51.0284C64.4188 49.5493 64.9999 48.143 65.767 47.1703C66.5273 46.2064 67.4648 45.6732 68.6864 45.915C69.9109 46.1573 70.8625 47.1222 71.6458 48.4913C72.4299 49.8617 73.0327 51.6155 73.5635 53.3936C73.7546 54.034 73.9369 54.6796 74.1149 55.3101C74.428 56.4187 74.7279 57.481 75.0402 58.3882C75.286 59.1025 75.5436 59.7342 75.828 60.2288C76.1113 60.7217 76.4314 61.0967 76.8078 61.2699C77.1646 61.4341 77.4854 61.4699 77.7785 61.3961C78.0708 61.3224 78.3219 61.1433 78.5447 60.9041C78.9469 60.4724 79.2786 59.8181 79.608 59.1681C79.6371 59.1108 79.6662 59.0534 79.6953 58.9963C80.0616 58.2767 80.4381 57.5739 80.9279 57.0939C81.4081 56.6232 81.9999 56.3645 82.8141 56.5457C84.0287 56.816 84.9262 57.1018 85.6434 57.3302C85.9434 57.4257 86.2118 57.5112 86.4588 57.5813C87.2925 57.818 87.8824 57.8785 88.5439 57.4901C88.7688 57.3581 88.9463 57.1604 89.1094 56.9618C89.1472 56.9157 89.1842 56.8698 89.2208 56.8242C89.3464 56.668 89.4687 56.516 89.6132 56.3757C89.9698 56.0296 90.4611 55.7584 91.3918 55.9041C91.7073 55.9534 92.0178 56.1461 92.3185 56.4455C93.2086 57.3319 94.2915 58.1003 95.4013 58.4552C96.5128 58.8107 97.663 58.7538 98.6643 57.965C99.6904 57.1566 100.77 56.3846 101.695 55.8891C104.026 53.9438 104.973 56.508 105.979 56.2505C106.482 56.1218 106.898 56.0392 107.189 55.9888C107.334 55.9636 107.448 55.9464 107.525 55.9356C107.563 55.9302 107.592 55.9264 107.612 55.924C107.622 55.9227 107.629 55.9218 107.634 55.9213L107.639 55.9206L107.641 55.9205C107.728 55.9107 107.793 55.8172 107.785 55.7115C107.777 55.6059 107.698 55.5282 107.611 55.5379M25.5867 63.0839C25.5867 63.0839 25.5865 63.0841 25.4699 62.9533M25.5867 63.0839L25.4699 62.9533M25.5867 63.0839C25.5268 63.1616 25.4257 63.1662 25.3613 63.0939C25.2969 63.0216 25.2933 62.8999 25.3533 62.8222M25.4699 62.9533C25.3532 62.8224 25.3533 62.8222 25.3533 62.8222M25.4699 62.9533L25.3533 62.8222M25.3533 62.8222L25.3544 62.8208L25.3576 62.8167C25.3604 62.8131 25.3646 62.8077 25.37 62.8008C25.3809 62.7868 25.3971 62.7663 25.4182 62.7396C25.4604 62.6863 25.5226 62.6087 25.6027 62.5106C25.7629 62.3144 25.9952 62.0364 26.2839 61.7081C26.861 61.0519 27.6651 60.193 28.5716 59.3853C29.4769 58.5786 30.4907 57.817 31.4869 57.3617C32.4804 56.9075 33.481 56.7469 34.3413 57.1879C35.1677 57.6114 35.6758 58.0998 36.0459 58.5963C36.2297 58.8429 36.3776 59.0892 36.5116 59.3239C36.5501 59.3915 36.5871 59.4574 36.6234 59.5219C36.7148 59.6847 36.8013 59.8387 36.8947 59.9878C37.1494 60.394 37.4417 60.7398 37.9505 60.9868C38.4659 61.2369 39.2143 61.3908 40.3876 61.3803C42.5206 61.3612 44.1469 60.1444 45.6109 59.0491C45.7343 58.9568 45.8565 58.8654 45.9778 58.7756C46.7508 58.2033 47.4946 57.6919 48.2449 57.4893C49.0071 57.2836 49.7714 57.397 50.5768 58.0522C50.7977 58.2318 51.0075 58.4005 51.2068 58.5588C52.0147 59.2005 52.8582 59.2157 53.6042 58.808C54.356 58.3971 55.0162 57.5511 55.426 56.4595C55.6642 55.8253 55.9508 55.2335 56.293 54.7892C56.6357 54.3443 57.0448 54.0343 57.5249 53.9976C58.1237 53.9518 58.5611 54.1832 58.9029 54.5475C59.2369 54.9033 59.4767 55.3838 59.6919 55.8219L59.7089 55.8565C59.9236 56.2937 60.1127 56.6789 60.3515 56.9328C60.4706 57.0594 60.5983 57.1485 60.7435 57.1931C60.8886 57.2377 61.0608 57.2406 61.2724 57.1781C61.4422 57.1279 61.6233 56.9345 61.8176 56.5625C62.0084 56.1974 62.1925 55.6978 62.3817 55.1023C62.5469 54.5826 62.7131 53.9987 62.8896 53.3787C62.915 53.2898 62.9405 53.2001 62.9663 53.1097C63.1713 52.3912 63.3907 51.6333 63.6361 50.8868C64.1257 49.3978 64.725 47.934 65.536 46.9056C66.354 45.8684 67.3925 45.2695 68.7381 45.5358C70.0808 45.8015 71.0984 46.8578 71.9082 48.2731C72.7171 49.687 73.3313 51.4808 73.8634 53.2635C74.0592 53.9195 74.2434 54.5721 74.4221 55.2052C74.7323 56.3039 75.0258 57.3438 75.3346 58.2409C75.5769 58.9452 75.8245 59.5481 76.09 60.0099C76.3565 60.4735 76.6309 60.7772 76.9215 60.9109C77.2317 61.0537 77.49 61.0761 77.7133 61.0199C77.9374 60.9635 78.1398 60.8243 78.3328 60.6172C78.6976 60.2255 79.0046 59.6207 79.3427 58.9545C79.3695 58.9018 79.3964 58.8487 79.4236 58.7953C79.7868 58.0819 80.1888 57.323 80.7268 56.7957C81.2744 56.259 81.9597 55.9647 82.872 56.1678C84.0989 56.4409 85.0189 56.7338 85.7391 56.963C86.0345 57.0571 86.2963 57.1404 86.5318 57.2073C87.3449 57.4381 87.8441 57.4736 88.4043 57.1447C88.5779 57.0428 88.7239 56.8851 88.8829 56.6915C88.9158 56.6514 88.9495 56.6094 88.9842 56.5663C89.1117 56.4075 89.2519 56.233 89.4134 56.0763C89.8409 55.6614 90.4202 55.3646 91.4328 55.523C91.8271 55.5847 92.1921 55.8213 92.5215 56.1493C93.3871 57.0112 94.4296 57.7469 95.483 58.0838C96.5345 58.4201 97.5851 58.3561 98.49 57.6433C99.5209 56.8311 100.617 56.046 101.566 55.5379C104.852 53.7796 104.893 56.1358 105.913 55.8746C106.423 55.744 106.847 55.6599 107.143 55.6084C107.292 55.5827 107.408 55.5651 107.488 55.5539C107.528 55.5484 107.558 55.5444 107.579 55.5417C107.589 55.5404 107.597 55.5395 107.603 55.5388L107.609 55.5381L107.611 55.5379M107.611 55.5379C107.611 55.5379 107.611 55.5378 107.614 55.5718L107.611 55.5379Z" stroke="#709AFC" stroke-width="1.07032" stroke-linecap="round"/>
<path d="M26.2688 65.1298V66.399H26.1885V65.2712L25.7965 66.0509H25.7829L25.3908 65.2712V66.399H25.3105V65.1298H25.4105L25.7889 65.8804L26.1674 65.1298H26.2688Z" fill="#5B87EF"/>
<path d="M27.4051 66.2286C27.2991 66.3555 27.1699 66.419 27.0176 66.419C26.8652 66.419 26.736 66.3555 26.63 66.2286C26.5241 66.1004 26.4711 65.9457 26.4711 65.7644C26.4711 65.5831 26.5241 65.429 26.63 65.3021C26.736 65.1739 26.8652 65.1099 27.0176 65.1099C27.1699 65.1099 27.2991 65.1739 27.4051 65.3021C27.5111 65.429 27.564 65.5831 27.564 65.7644C27.564 65.9457 27.5111 66.1004 27.4051 66.2286ZM26.686 66.1633C26.7769 66.2721 26.8874 66.3265 27.0176 66.3265C27.1477 66.3265 27.2577 66.2721 27.3476 66.1633C27.4384 66.0533 27.4838 65.9203 27.4838 65.7644C27.4838 65.6085 27.4384 65.4761 27.3476 65.3673C27.2577 65.2573 27.1477 65.2023 27.0176 65.2023C26.8874 65.2023 26.7769 65.2573 26.686 65.3673C26.5962 65.4761 26.5513 65.6085 26.5513 65.7644C26.5513 65.9203 26.5962 66.0533 26.686 66.1633Z" fill="#5B87EF"/>
<path d="M28.4638 65.1298H28.5441V66.399H28.4729L27.8477 65.3075V66.399H27.7675V65.1298H27.8371L28.4638 66.2213V65.1298Z" fill="#5B87EF"/>
<path d="M40.1179 65.1099V65.2019H39.7638V66.3987H39.6769V65.2019H39.3228V65.1099H40.1179Z" fill="#5B87EF"/>
<path d="M40.9904 66.2956C40.9153 66.3778 40.8155 66.419 40.691 66.419C40.5665 66.419 40.4667 66.3778 40.3916 66.2956C40.3165 66.2134 40.279 66.1041 40.279 65.9679V65.1099H40.3643V65.9679C40.3643 66.0759 40.3927 66.1624 40.4496 66.2275C40.5064 66.2925 40.5869 66.3251 40.691 66.3251C40.7951 66.3251 40.8756 66.2925 40.9325 66.2275C40.9904 66.1624 41.0194 66.0759 41.0194 65.9679V65.1099H41.1047V65.9679C41.1047 66.1041 41.0666 66.2134 40.9904 66.2956Z" fill="#5B87EF"/>
<path d="M41.454 66.3066H42.0174V66.3987H41.3687V65.1099H42.0093V65.2019H41.454V65.7027H41.9691V65.7948H41.454V66.3066Z" fill="#5B87EF"/>
<path d="M52.5589 66.419L52.2568 65.1099H52.3402L52.6094 66.2862L52.8996 65.1099H52.9933L53.2849 66.2862L53.5527 65.1099H53.636L53.334 66.419H53.2388L52.9472 65.2389L52.6541 66.419H52.5589Z" fill="#5B87EF"/>
<path d="M53.8937 66.3254H54.4144V66.419H53.8148V65.1099H54.407V65.2034H53.8937V65.712H54.3698V65.8056H53.8937V66.3254Z" fill="#5B87EF"/>
<path d="M54.9994 65.1099C55.1412 65.1099 55.2583 65.1734 55.3505 65.3006C55.4438 65.4265 55.4904 65.5811 55.4904 65.7644C55.4904 65.9477 55.4438 66.1029 55.3505 66.2301C55.2583 66.356 55.1412 66.419 54.9994 66.419H54.6081V65.1099H54.9994ZM54.9994 66.3254C55.1204 66.3254 55.2196 66.2718 55.297 66.1646C55.3743 66.0561 55.413 65.9227 55.413 65.7644C55.413 65.6061 55.3743 65.4733 55.297 65.3661C55.2196 65.2576 55.1204 65.2034 54.9994 65.2034H54.687V66.3254H54.9994Z" fill="#5B87EF"/>
<path d="M66.5316 65.1099V65.3118H66.222V66.3951H66.0413V65.3118H65.7302V65.1099H66.5316Z" fill="#5B87EF"/>
<path d="M67.5293 65.1099H67.71V66.3951H67.5293V65.8388H67.058V66.3951H66.8773V65.1099H67.058V65.6368H67.5293V65.1099Z" fill="#5B87EF"/>
<path d="M68.8475 66.2978C68.77 66.3786 68.6699 66.419 68.5474 66.419C68.4248 66.419 68.3248 66.3786 68.2473 66.2978C68.1698 66.2158 68.131 66.1062 68.131 65.9691V65.1099H68.3117V65.9563C68.3117 66.0346 68.3311 66.097 68.3698 66.1435C68.4096 66.1901 68.4688 66.2133 68.5474 66.2133C68.6259 66.2133 68.6846 66.1901 68.7234 66.1435C68.7632 66.097 68.7831 66.0346 68.7831 65.9563V65.1099H68.9638V65.9691C68.9638 66.1062 68.925 66.2158 68.8475 66.2978Z" fill="#5B87EF"/>
<path d="M80.2718 65.2034H79.8143V65.727H80.2554V65.8205H79.8143V66.419H79.7419V65.1099H80.2718V65.2034Z" fill="#5B87EF"/>
<path d="M81.0524 66.419L80.823 65.8822H80.5212V66.419H80.4488V65.1099H80.8257C80.9031 65.1099 80.9696 65.1479 81.0251 65.2239C81.0806 65.3 81.1084 65.391 81.1084 65.497C81.1084 65.5855 81.0884 65.664 81.0483 65.7326C81.0092 65.8012 80.9591 65.8467 80.8981 65.8691L81.1357 66.419H81.0524ZM80.5212 65.2034V65.7887H80.8257C80.884 65.7887 80.9336 65.7607 80.9746 65.7046C81.0155 65.6472 81.036 65.578 81.036 65.497C81.036 65.4159 81.0155 65.3467 80.9746 65.2894C80.9336 65.232 80.884 65.2034 80.8257 65.2034H80.5212Z" fill="#5B87EF"/>
<path d="M81.2863 65.1099H81.3587V66.419H81.2863V65.1099Z" fill="#5B87EF"/>
<path d="M92.4788 66.419C92.3925 66.419 92.3191 66.3924 92.2586 66.3392C92.199 66.2848 92.1586 66.2117 92.1372 66.1198L92.1986 66.0708C92.2155 66.1494 92.2475 66.2117 92.2947 66.2576C92.3427 66.3035 92.4041 66.3265 92.4788 66.3265C92.5544 66.3265 92.6122 66.3029 92.6523 66.2558C92.6932 66.2086 92.7136 66.1476 92.7136 66.0726C92.7136 66.0025 92.6941 65.9487 92.6549 65.9113C92.6158 65.8738 92.5549 65.8369 92.4721 65.8007C92.4419 65.7874 92.4196 65.7777 92.4054 65.7717C92.3921 65.7644 92.3725 65.7541 92.3467 65.7408C92.3209 65.7263 92.3018 65.7136 92.2893 65.7028C92.2769 65.6919 92.2617 65.6774 92.244 65.6592C92.2271 65.6411 92.2146 65.623 92.2066 65.6049C92.1986 65.5855 92.1915 65.5631 92.1852 65.5378C92.179 65.5112 92.1759 65.4822 92.1759 65.4507C92.1759 65.348 92.2026 65.2658 92.256 65.2041C92.3102 65.1413 92.3778 65.1099 92.4588 65.1099C92.5317 65.1099 92.594 65.1346 92.6456 65.1842C92.6972 65.2338 92.735 65.2978 92.759 65.3764L92.699 65.4217C92.6545 65.2755 92.5744 65.2023 92.4588 65.2023C92.3947 65.2023 92.3436 65.2253 92.3053 65.2712C92.2671 65.3172 92.248 65.3758 92.248 65.4471C92.248 65.516 92.2657 65.5674 92.3013 65.6012C92.3369 65.6351 92.3952 65.6701 92.4761 65.7064C92.5277 65.7294 92.5678 65.7493 92.5962 65.7662C92.6256 65.7819 92.6567 65.8043 92.6896 65.8333C92.7234 65.8611 92.7479 65.895 92.763 65.9348C92.7781 65.9735 92.7857 66.0189 92.7857 66.0708C92.7857 66.176 92.7577 66.2606 92.7016 66.3247C92.6456 66.3875 92.5713 66.419 92.4788 66.419Z" fill="#5B87EF"/>
<path d="M93.5749 66.399L93.4842 66.0763H93.0158L92.9251 66.399H92.8503L93.2133 65.1298H93.288L93.6496 66.399H93.5749ZM93.0425 65.9856H93.4588L93.2506 65.2477L93.0425 65.9856Z" fill="#5B87EF"/>
<path d="M94.2929 65.1298V65.2205H93.9993V66.399H93.9273V65.2205H93.6337V65.1298H94.2929Z" fill="#5B87EF"/>
<path d="M104.917 66.419C104.82 66.419 104.737 66.3924 104.669 66.3392C104.602 66.2848 104.557 66.2117 104.533 66.1198L104.602 66.0708C104.621 66.1494 104.657 66.2117 104.71 66.2576C104.764 66.3035 104.833 66.3265 104.917 66.3265C105.002 66.3265 105.067 66.3029 105.112 66.2558C105.158 66.2086 105.181 66.1476 105.181 66.0726C105.181 66.0025 105.159 65.9487 105.115 65.9113C105.071 65.8738 105.002 65.8369 104.909 65.8007C104.875 65.7874 104.85 65.7777 104.834 65.7717C104.819 65.7644 104.797 65.7541 104.768 65.7408C104.739 65.7263 104.718 65.7136 104.704 65.7028C104.69 65.6919 104.673 65.6774 104.653 65.6592C104.634 65.6411 104.62 65.623 104.611 65.6049C104.602 65.5855 104.594 65.5631 104.587 65.5378C104.58 65.5112 104.576 65.4822 104.576 65.4507C104.576 65.348 104.606 65.2658 104.666 65.2041C104.727 65.1413 104.803 65.1099 104.894 65.1099C104.976 65.1099 105.046 65.1346 105.104 65.1842C105.162 65.2338 105.205 65.2978 105.232 65.3764L105.164 65.4217C105.114 65.2755 105.024 65.2023 104.894 65.2023C104.822 65.2023 104.765 65.2253 104.722 65.2712C104.679 65.3172 104.657 65.3758 104.657 65.4471C104.657 65.516 104.677 65.5674 104.717 65.6012C104.757 65.6351 104.823 65.6701 104.914 65.7064C104.972 65.7294 105.017 65.7493 105.049 65.7662C105.082 65.7819 105.117 65.8043 105.154 65.8333C105.192 65.8611 105.219 65.895 105.236 65.9348C105.253 65.9735 105.262 66.0189 105.262 66.0708C105.262 66.176 105.23 66.2606 105.167 66.3247C105.104 66.3875 105.021 66.419 104.917 66.419Z" fill="#5B87EF"/>
<path d="M106.105 66.2975C106.035 66.3785 105.942 66.419 105.826 66.419C105.71 66.419 105.617 66.3785 105.547 66.2975C105.477 66.2165 105.442 66.1089 105.442 65.9747V65.1298H105.522V65.9747C105.522 66.0811 105.548 66.1663 105.601 66.2304C105.654 66.2945 105.729 66.3265 105.826 66.3265C105.923 66.3265 105.998 66.2945 106.051 66.2304C106.105 66.1663 106.132 66.0811 106.132 65.9747V65.1298H106.212V65.9747C106.212 66.1089 106.176 66.2165 106.105 66.2975Z" fill="#5B87EF"/>
<path d="M107.148 65.1298H107.227V66.399H107.157L106.537 65.3075V66.399H106.458V65.1298H106.527L107.148 66.2213V65.1298Z" fill="#5B87EF"/>
<path fill-rule="evenodd" clip-rule="evenodd" d="M25.8495 56.6651L25.3105 56.6651L25.3105 56.6006L25.8495 56.6006L25.8495 56.6651ZM28.0052 56.6651L26.9273 56.6651L26.9273 56.6006L28.0052 56.6006L28.0052 56.6651ZM30.1608 56.6651L29.083 56.6651L29.083 56.6006L30.1608 56.6006L30.1608 56.6651ZM32.3165 56.6651L31.2387 56.6651L31.2387 56.6006L32.3165 56.6006L32.3165 56.6651ZM34.4722 56.6651L33.3944 56.6651L33.3944 56.6006L34.4722 56.6006L34.4722 56.6651ZM36.6279 56.6651L35.5501 56.6651L35.5501 56.6006L36.6279 56.6006L36.6279 56.6651ZM38.7836 56.6651L37.7058 56.6651L37.7058 56.6006L38.7836 56.6006L38.7836 56.6651ZM40.9393 56.6651L39.8614 56.6651L39.8614 56.6006L40.9393 56.6006L40.9393 56.6651ZM43.095 56.6651L42.0171 56.6651L42.0171 56.6006L43.095 56.6006L43.095 56.6651ZM45.2507 56.6651L44.1728 56.6651L44.1728 56.6006L45.2507 56.6006L45.2507 56.6651ZM47.4064 56.6651L46.3285 56.6651L46.3285 56.6006L47.4064 56.6006L47.4064 56.6651ZM49.562 56.6651L48.4842 56.6651L48.4842 56.6006L49.562 56.6006L49.562 56.6651ZM51.7177 56.6651L50.6399 56.6651L50.6399 56.6006L51.7177 56.6006L51.7177 56.6651ZM53.8734 56.6651L52.7956 56.6651L52.7956 56.6006L53.8734 56.6006L53.8734 56.6651ZM56.0291 56.6651L54.9513 56.6651L54.9513 56.6006L56.0291 56.6006L56.0291 56.6651ZM58.1848 56.6651L57.107 56.6651L57.107 56.6006L58.1848 56.6006L58.1848 56.6651ZM60.3405 56.6651L59.2626 56.6651L59.2626 56.6006L60.3405 56.6006L60.3405 56.6651ZM62.4962 56.6651L61.4183 56.6651L61.4183 56.6006L62.4962 56.6006L62.4962 56.6651ZM64.6519 56.6651L63.574 56.6651L63.574 56.6006L64.6519 56.6006L64.6519 56.6651ZM66.8075 56.6651L65.7297 56.6651L65.7297 56.6006L66.8075 56.6006L66.8075 56.6651ZM68.9632 56.6651L67.8854 56.6651L67.8854 56.6006L68.9632 56.6006L68.9632 56.6651ZM71.1189 56.6651L70.0411 56.6651L70.0411 56.6006L71.1189 56.6006L71.1189 56.6651ZM73.2746 56.6651L72.1968 56.6651L72.1968 56.6006L73.2746 56.6006L73.2746 56.6651ZM75.4303 56.6651L74.3524 56.6651L74.3524 56.6006L75.4303 56.6006L75.4303 56.6651ZM77.586 56.6651L76.5081 56.6651L76.5081 56.6006L77.586 56.6006L77.586 56.6651ZM79.7417 56.6651L78.6638 56.6651L78.6638 56.6006L79.7417 56.6006L79.7417 56.6651ZM81.8973 56.6651L80.8195 56.6651L80.8195 56.6006L81.8973 56.6006L81.8973 56.6651ZM84.053 56.6651L82.9752 56.6651L82.9752 56.6006L84.053 56.6006L84.053 56.6651ZM86.2087 56.6651L85.1309 56.6651L85.1309 56.6006L86.2087 56.6006L86.2087 56.6651ZM88.3644 56.6651L87.2866 56.6651L87.2866 56.6006L88.3644 56.6006L88.3644 56.6651ZM90.5201 56.6651L89.4422 56.6651L89.4422 56.6006L90.5201 56.6006L90.5201 56.6651ZM92.6758 56.6651L91.5979 56.6651L91.5979 56.6006L92.6758 56.6006L92.6758 56.6651ZM94.8315 56.6651L93.7536 56.6651L93.7536 56.6006L94.8315 56.6006L94.8315 56.6651ZM96.9871 56.6651L95.9093 56.6651L95.9093 56.6006L96.9871 56.6006L96.9871 56.6651ZM99.1428 56.6651L98.065 56.6651L98.065 56.6006L99.1428 56.6006L99.1428 56.6651ZM101.299 56.6651L100.221 56.6651L100.221 56.6006L101.299 56.6006L101.299 56.6651ZM103.454 56.6651L102.376 56.6651L102.376 56.6006L103.454 56.6006L103.454 56.6651ZM105.61 56.6651L104.532 56.6651L104.532 56.6006L105.61 56.6006L105.61 56.6651ZM107.227 56.6651L106.688 56.6651L106.688 56.6006L107.227 56.6006L107.227 56.6651Z" fill="white" fill-opacity="0.2"/>
</g>
<rect x="20.9995" y="35" width="90" height="36" rx="3" stroke="#333333"/>
<path d="M15.511 51.892C12.4586 51.3962 9.72672 49.7079 7.91622 47.1985C6.10572 44.6892 5.36495 41.5643 5.85687 38.5113V38.5113C6.3488 35.4583 8.03312 32.7273 10.5393 30.9191C13.0455 29.1109 16.1682 28.3736 19.2206 28.8694V28.8694C20.732 29.1149 22.1806 29.6557 23.4837 30.461C24.7868 31.2663 25.9189 32.3203 26.8154 33.5628C27.7119 34.8054 28.3551 36.2121 28.7085 37.7026C29.0618 39.1932 29.1183 40.7384 28.8747 42.2501V42.2501C28.6312 43.7618 28.0923 45.2103 27.2889 46.513C26.4855 47.8156 25.4332 48.9469 24.1923 49.8423C22.9514 50.7376 21.546 51.3794 20.0565 51.7311C18.5669 52.0828 17.0224 52.1375 15.511 51.892Z" fill="#4E6BD2" stroke="#333333"/>
<path d="M9.79452 43.6891C10.8936 44.6929 12.2424 45.3664 13.694 45.6362C15.1457 45.9059 16.6445 45.7616 18.027 45.219C19.4096 44.6763 20.623 43.7562 21.5349 42.5587C22.4468 41.3613 23.0223 39.9325 23.1987 38.4281C23.8044 38.113 24.3525 37.6922 24.8181 37.1846C24.2685 37.3321 23.7013 37.3971 23.1345 37.3776C23.7766 37.1216 24.3084 36.6372 24.6321 36.0135C24.0235 36.2616 23.3777 36.3978 22.7243 36.4159C22.3804 35.8764 21.8703 35.4709 21.2744 35.2633C20.6785 35.0557 20.0308 35.0578 19.4335 35.2693C18.8361 35.4808 18.323 35.8896 17.9752 36.4313C17.6274 36.973 17.4646 37.6167 17.5126 38.2609C16.4097 38.0215 15.3698 37.5471 14.4601 36.8684C13.5504 36.1896 12.7912 35.3217 12.2316 34.3207C11.7737 34.8957 11.5449 35.626 11.5914 36.3638C11.6379 37.1016 11.9562 37.7919 12.4821 38.2948C12.0391 38.2108 11.6233 38.0178 11.2703 37.7324C11.1551 38.4001 11.2704 39.0864 11.5964 39.6733C11.9223 40.2601 12.4385 40.7106 13.056 40.9473C12.6256 40.9955 12.1908 40.9421 11.7849 40.7913C11.8725 41.3895 12.14 41.9436 12.5504 42.3763C12.9608 42.8091 13.4935 43.0989 14.0743 43.2055C12.7604 43.9334 11.2241 44.107 9.79452 43.6891V43.6891Z" fill="white"/>
<path d="M57.3365 27.7296C53.7487 27.7707 50.2917 26.3852 47.725 23.8775C45.1584 21.3699 43.6921 17.9454 43.6485 14.3565C43.6269 12.5773 43.9561 10.8112 44.6172 9.15919C45.2783 7.50719 46.2584 6.00168 47.5015 4.72874C48.7446 3.4558 50.2263 2.44039 51.8618 1.74056C53.4974 1.04074 55.2547 0.670216 57.0334 0.650184V0.650184C58.811 0.628431 60.5754 0.957155 62.2259 1.61758C63.8764 2.27801 65.3806 3.25721 66.6527 4.49926C67.9248 5.74132 68.9397 7.22189 69.6397 8.85645C70.3397 10.491 70.7109 12.2475 70.7321 14.0257V14.0257C70.7534 15.8056 70.4237 17.5723 69.7617 19.2248C69.0998 20.8772 68.1186 22.3829 66.8745 23.6557C65.6303 24.9285 64.1474 25.9435 62.5108 26.6425C60.8742 27.3416 59.1159 27.711 57.3365 27.7296V27.7296Z" fill="#5B76D7" stroke="#333333"/>
<path d="M57.1103 8.00323C59.1219 7.97779 59.3621 7.98213 60.1709 8.01122C60.648 8.0115 61.1214 8.09364 61.5707 8.25409C61.8996 8.37125 62.1983 8.56037 62.445 8.80769C62.6956 9.04974 62.8906 9.34351 63.0164 9.66862C63.1867 10.1148 63.2796 10.5868 63.2911 11.0644C63.3374 11.8605 63.3483 12.1006 63.369 14.1137C63.3897 16.1267 63.3852 16.3672 63.3557 17.1769C63.3572 17.6547 63.2748 18.1291 63.1124 18.5785C62.9986 18.9095 62.8091 19.2093 62.5589 19.454C62.3193 19.7062 62.0267 19.902 61.7023 20.0274C61.2552 20.1976 60.7825 20.2906 60.3044 20.3023C59.5273 20.3532 59.2729 20.361 57.2622 20.3828C55.2514 20.4046 55.0104 20.4039 54.2016 20.3748C53.7231 20.3761 53.2482 20.2936 52.7981 20.1311C52.4687 20.015 52.1698 19.8257 51.9239 19.5775C51.6774 19.3307 51.491 19.0303 51.3792 18.6996C51.2065 18.2538 51.1123 17.7812 51.1009 17.3031C51.0582 16.5077 51.0465 16.2713 51.0221 14.2574C50.9978 12.2436 51.0023 12.0031 51.0318 11.1934C51.0346 10.7147 51.1171 10.2398 51.276 9.78816C51.3968 9.46096 51.5852 9.16289 51.8288 8.91339C52.0723 8.66388 52.3657 8.46854 52.6897 8.34008C53.1353 8.16765 53.6072 8.07312 54.0848 8.06063C54.861 8.01339 55.1191 8.00643 57.1307 7.98098L57.1103 8.00323ZM57.1159 6.62084C55.0698 6.64619 54.811 6.6568 54.0076 6.70559C53.3845 6.71919 52.7683 6.83948 52.1857 7.06126C51.6885 7.26198 51.2384 7.5639 50.8639 7.94788C50.4893 8.33185 50.1985 8.78951 50.0098 9.29183C49.7962 9.88261 49.6842 10.5054 49.6787 11.1335C49.6545 11.9368 49.6459 12.1955 49.6701 14.2438C49.6943 16.2921 49.7048 16.5513 49.7357 17.3478C49.7481 17.9717 49.868 18.5886 50.09 19.1716C50.2857 19.6851 50.593 20.1485 50.9898 20.5282C51.3688 20.9063 51.826 21.1965 52.3293 21.3784C52.9192 21.5924 53.5412 21.7041 54.1687 21.7089C54.9702 21.7363 55.2294 21.7411 57.2754 21.7158C59.3214 21.6904 59.5803 21.6798 60.3759 21.6484C60.9987 21.6321 61.6145 21.5119 62.1979 21.2928C62.6985 21.0974 63.1506 20.7952 63.523 20.4073C63.8995 20.0263 64.1905 19.5692 64.3765 19.0667C64.5891 18.4754 64.6998 17.8524 64.704 17.2242C64.7327 16.4181 64.7368 16.1622 64.7126 14.1139C64.6884 12.0656 64.6779 11.8064 64.6478 11.0062C64.6312 10.3828 64.5115 9.76655 64.2935 9.18243C64.0982 8.68242 63.7964 8.23111 63.409 7.85994C63.0311 7.48 62.574 7.18844 62.0703 7.00614C61.4805 6.79214 60.8584 6.68037 60.2309 6.67563C59.4249 6.65101 59.1702 6.64338 57.1242 6.66873" fill="white"/>
<path d="M56.8895 10.0606C56.1531 10.0696 55.4358 10.2967 54.8284 10.7133C54.221 11.1299 53.7507 11.7172 53.477 12.4011C53.2033 13.0849 53.1386 13.8346 53.2909 14.5552C53.4432 15.2759 53.8058 15.9352 54.3327 16.4498C54.8597 16.9643 55.5274 17.3111 56.2514 17.4462C56.9754 17.5813 57.7232 17.4986 58.4003 17.2087C59.0774 16.9188 59.6533 16.4346 60.0552 15.8173C60.4572 15.2001 60.6671 14.4775 60.6585 13.741C60.6459 12.7533 60.242 11.811 59.5353 11.121C58.8287 10.431 57.8771 10.0496 56.8895 10.0606V10.0606ZM56.9769 16.2091C56.4987 16.214 56.0297 16.0769 55.6294 15.8153C55.229 15.5537 54.9151 15.1793 54.7274 14.7393C54.5397 14.2994 54.4866 13.8137 54.5748 13.3436C54.6631 12.8735 54.8886 12.4401 55.2231 12.0981C55.5575 11.7561 55.9857 11.521 56.4537 11.4223C56.9217 11.3237 57.4085 11.366 57.8524 11.5438C58.2964 11.7217 58.6777 12.0272 58.9481 12.4217C59.2185 12.8163 59.3659 13.2821 59.3717 13.7604C59.3756 14.0785 59.3166 14.3943 59.1983 14.6896C59.08 14.9849 58.9046 15.254 58.6821 15.4815C58.4597 15.7089 58.1946 15.8903 57.902 16.0151C57.6094 16.14 57.295 16.2059 56.9769 16.2091" fill="white"/>
<path d="M62.1466 10.5582C62.1484 10.7588 62.0908 10.9554 61.9809 11.1233C61.871 11.2911 61.7138 11.4226 61.5292 11.5012C61.3446 11.5798 61.1408 11.602 60.9435 11.5649C60.7463 11.5279 60.5645 11.4332 60.421 11.2929C60.2775 11.1527 60.1788 10.9731 60.1373 10.7768C60.0958 10.5805 60.1134 10.3764 60.1879 10.1901C60.2624 10.0038 60.3904 9.84384 60.5558 9.73027C60.7212 9.61669 60.9166 9.55466 61.1173 9.55197C61.2512 9.54963 61.3842 9.57389 61.5087 9.62334C61.6331 9.6728 61.7465 9.74647 61.8423 9.84008C61.9381 9.93369 62.0143 10.0454 62.0665 10.1687C62.1188 10.2919 62.146 10.4243 62.1466 10.5582" fill="white"/>
<path d="M111.127 50.3236C109.403 50.3173 107.698 49.971 106.108 49.3047C104.517 48.6383 103.074 47.6649 101.859 46.44C100.644 45.2151 99.6822 43.7628 99.028 42.166C98.3738 40.5692 98.0401 38.8593 98.0461 37.1339C98.0521 35.4085 98.3976 33.7014 99.0629 32.1103C99.7282 30.5191 100.7 29.075 101.923 27.8605C103.147 26.646 104.597 25.6849 106.192 25.0321C107.787 24.3793 109.495 24.0476 111.218 24.0559V24.0559C112.943 24.0602 114.65 24.405 116.242 25.0704C117.834 25.7359 119.279 26.709 120.496 27.9341C121.712 29.1592 122.675 30.6122 123.331 32.21C123.986 33.8078 124.32 35.519 124.314 37.2457C124.308 38.9724 123.962 40.6807 123.296 42.2728C122.629 43.865 121.656 45.3097 120.431 46.5244C119.206 47.7391 117.754 48.6999 116.157 49.3518C114.561 50.0037 112.851 50.334 111.127 50.3236V50.3236Z" fill="#4E6BD2" stroke="#333333"/>
<path d="M109.262 45.3562L112.328 45.3693L112.357 37.2323L114.491 37.2414L114.736 34.5119L112.366 34.5018L112.372 32.9415C112.374 32.3017 112.499 32.0448 113.108 32.0474L114.774 32.0545L114.783 29.2147L112.656 29.2057C110.374 29.196 109.344 30.2604 109.337 32.3122L109.329 34.4966L107.693 34.4897L107.684 37.2124L109.275 37.2192L109.262 45.3562Z" fill="white"/>
</g>
<defs>
<clipPath id="clip0_1343_14549">
<rect width="132" height="78" fill="white"/>
</clipPath>
<clipPath id="clip1_1343_14549">
<rect x="20.9995" y="35" width="90" height="36" rx="3" fill="white"/>
</clipPath>
</defs>
</svg>
