<svg width="132" height="78" viewBox="0 0 132 78" fill="none" xmlns="http://www.w3.org/2000/svg">
<rect x="16" y="6" width="100" height="71" rx="6" fill="#FEDCEC" stroke="#333333"/>
<rect x="63" y="71" width="50" height="46.5517" rx="3.54" transform="rotate(-90 63 71)" fill="#FFFEFF" stroke="#484848"/>
<rect x="65.5872" y="23.5864" width="12.1636" height="12.1636" rx="1.15683" fill="#F8F8F8"/>
<path d="M74.0574 27.7123C74.0574 26.3927 72.9877 25.323 71.6681 25.323C70.3485 25.323 69.2788 26.3927 69.2788 27.7123C69.2788 29.0318 70.3485 30.1016 71.6681 30.1016C72.9877 30.1016 74.0574 29.0318 74.0574 27.7123Z" fill="#BBBBBB"/>
<path d="M67.931 34.0115H75.4317C75.536 34.0114 75.6384 33.9817 75.7281 33.9255C75.8178 33.8692 75.8915 33.7885 75.9414 33.6919C75.9914 33.5952 76.0157 33.4861 76.0119 33.3761C76.0081 33.2661 75.9762 33.1592 75.9197 33.0666C75.2823 32.0156 73.9492 30.4666 71.6405 30.5385C69.4156 30.606 68.0967 32.0017 67.4341 33.003C67.3703 33.099 67.3326 33.2116 67.3253 33.3286C67.318 33.4455 67.3412 33.5624 67.3924 33.6664C67.4437 33.7704 67.521 33.8576 67.616 33.9184C67.711 33.9793 67.8199 34.0114 67.931 34.0115V34.0115Z" fill="#BBBBBB"/>
<rect x="89.7241" y="27.0347" width="12.069" height="0.862069" fill="#EEEEEE"/>
<rect x="89.7241" y="29.6207" width="11.2069" height="0.862069" fill="#EEEEEE"/>
<rect x="89.7241" y="32.207" width="17.2414" height="0.862069" fill="#EEEEEE"/>
<rect x="89.7241" y="38.2412" width="17.2414" height="0.862069" fill="#EEEEEE"/>
<rect x="89.7241" y="40.8276" width="17.2414" height="0.862069" fill="#EEEEEE"/>
<rect x="71.6206" y="48.5864" width="12.069" height="0.862069" fill="#EEEEEE"/>
<rect x="66.4482" y="46.8623" width="3.47532" height="3.47532" rx="1" fill="#EEEEEE"/>
<rect x="93.1724" y="48.5864" width="13.7931" height="0.862069" fill="#EEEEEE"/>
<rect x="87.9993" y="46.8623" width="3.47532" height="3.47532" rx="1" fill="#EEEEEE"/>
<rect x="71.6201" y="55.4824" width="35.3448" height="0.862069" fill="#EEEEEE"/>
<rect x="66.4478" y="53.7583" width="3.47532" height="3.47532" rx="1" fill="#FE779F"/>
<path d="M67.3098 55.317L68.0062 56.0135L69.3991 54.6206" stroke="white" stroke-width="0.578414"/>
<rect x="71.6211" y="60.6548" width="35.3448" height="0.862069" fill="#EEEEEE"/>
<rect x="66.4495" y="58.9707" width="3.47532" height="3.47532" rx="1" fill="#FE779F"/>
<path d="M67.3108 60.5294L68.0072 61.2259L69.4001 59.833" stroke="white" stroke-width="0.578414"/>
<rect x="71.6211" y="65.8276" width="35.3448" height="0.862069" fill="#EEEEEE"/>
<rect x="66.4495" y="64.1846" width="3.47532" height="3.47532" rx="1" fill="#FE779F"/>
<path d="M67.3115 65.7433L68.0079 66.4397L69.4008 65.0469" stroke="white" stroke-width="0.578414"/>
<rect x="24" y="71" width="58" height="54" rx="3.54" transform="rotate(-90 24 71)" fill="white" stroke="#484848"/>
<rect x="51" y="18" width="17" height="1" fill="#EEEEEE"/>
<rect x="51" y="21" width="16" height="1" fill="#EEEEEE"/>
<rect x="51" y="25" width="24" height="1" fill="#EEEEEE"/>
<rect x="51" y="33" width="24" height="1" fill="#EEEEEE"/>
<rect x="51" y="36" width="24" height="1" fill="#EEEEEE"/>
<rect x="34" y="45" width="14" height="1" fill="#EEEEEE"/>
<rect x="28" y="43" width="4.03137" height="4.03137" rx="1" fill="#EEEEEE"/>
<rect x="59" y="45" width="16" height="1" fill="#EEEEEE"/>
<rect x="52.999" y="43" width="4.03137" height="4.03137" rx="1" fill="#EEEEEE"/>
<rect x="34" y="53" width="41" height="1" fill="#EEEEEE"/>
<rect x="28" y="51" width="4.03137" height="4.03137" rx="1" fill="#FE779F"/>
<path d="M29 52.8079L29.8079 53.6157L31.4236 52" stroke="white" stroke-width="0.578414"/>
<rect x="34" y="59" width="41" height="1" fill="#EEEEEE"/>
<rect x="28.001" y="57.0464" width="4.03137" height="4.03137" rx="1" fill="#FE779F"/>
<path d="M29.0002 58.8542L29.8081 59.6621L31.4238 58.0464" stroke="white" stroke-width="0.578414"/>
<rect x="34" y="65" width="41" height="1" fill="#EEEEEE"/>
<rect x="28.001" y="63.0942" width="4.03137" height="4.03137" rx="1" fill="#FE779F"/>
<path d="M29.0007 64.9021L29.8086 65.7099L31.4243 64.0942" stroke="white" stroke-width="0.578414"/>
<path d="M38.269 38.231H36.082V38.6358H38.269V38.231Z" fill="#4598E6"/>
<path d="M43.8328 22.5913V22.9876H46.1649V25.1759H46.5604V22.5913H43.8328ZM28 25.1759H28.3955V22.9876H30.7276V22.5913H28V25.1759ZM46.1649 36.467V38.656H43.8328V39.0523H46.5604V36.467H46.1649ZM28.3955 36.467H28V39.0523H30.7276V38.656H28.3955V36.467Z" fill="#4598E6"/>
<path d="M46.0311 34.8661H42.8567C42.8126 34.5937 42.7734 34.3183 42.7393 34.0466C42.5294 32.3911 42.4768 30.88 42.4768 30.88C42.4768 30.88 41.5519 26.6371 44.2276 26.376C44.2276 26.376 44.9447 26.6001 44.9874 26.8946C45.1482 28.0286 45.5174 30.4802 45.5338 31.0607C45.5402 31.3574 45.8226 33.3842 46.0311 34.8661Z" fill="#323657"/>
<path d="M44.3052 26.4632C44.2663 27.6257 44.1978 28.8725 44.0996 30.2039C44.0996 30.2039 43.9658 32.3787 43.9196 34.8658H32.6342C32.3717 33.6415 32.0786 32.5558 32.0416 32.42C32.0416 32.42 32.0416 32.4164 32.0416 32.415C32.0416 32.4136 32.0416 32.415 32.0416 32.415V32.4086C32.0416 32.4086 31.7883 33.6315 31.5856 34.8687H28.8516C29.1902 32.151 30.0176 26.1253 30.4551 25.8122C30.8279 25.5447 33.1664 24.6078 34.3793 24.1475C34.94 23.9341 35.3668 23.7847 35.4543 23.779C35.7318 23.7619 39.1537 24.0899 39.1537 24.0899C39.1537 24.0899 39.6439 24.2578 40.1448 24.4883C40.9985 24.881 42.3338 25.4942 43.2907 25.9502C43.5973 26.0947 43.9843 26.2939 44.3052 26.4632Z" fill="#D8D5E0"/>
<path d="M35.4707 23.7685C35.7218 26.0735 38.2816 26.0735 38.2816 26.0735C38.2816 26.0735 39.3409 25.1487 39.3074 24.4614C39.3074 24.4465 39.3074 24.4308 39.3032 24.4166C39.2882 24.29 39.1445 24.1321 39.1303 23.8802C39.1303 23.8461 39.1303 23.8091 39.126 23.7756C39.1217 23.7422 39.126 23.7045 39.126 23.6732C39.126 23.4975 39.1374 23.3246 39.1474 23.2044C39.1509 23.1624 39.1545 23.1261 39.1573 23.0976C39.1616 23.0557 39.1644 23.0308 39.1644 23.0308C39.1644 23.0308 38.7518 22.5961 38.2275 22.0782C37.3112 21.1725 36.0512 20.015 36.0491 20.4732C36.0499 20.5027 36.0538 20.532 36.0605 20.5607C36.281 21.6001 35.4707 23.7685 35.4707 23.7685Z" fill="#EEA886"/>
<path d="M37.216 25.126L38.2831 26.0736C38.2831 26.0736 37.053 25.9918 36.8232 25.789L37.216 25.126Z" fill="#B4B1BA"/>
<path d="M43.288 25.9467C42.6413 25.6393 41.8203 25.258 41.0925 24.9222C40.7461 24.7607 40.4195 24.6113 40.1421 24.4847L39.7031 24.2969C39.7273 24.3559 40.5255 26.2746 41.126 30.4863C41.2804 31.5641 41.5208 33.1257 41.757 34.8687H44.0037C44.1268 32.3936 44.188 30.2508 44.188 30.2508C44.2883 28.8948 44.3459 27.6264 44.3836 26.4454C44.0571 26.3024 43.6323 26.1103 43.288 25.9467Z" fill="#323657"/>
<path d="M37.3456 34.8657H32.4531C32.3506 34.007 32.2397 33.2529 32.1393 32.9022C32.1393 32.9022 31.9259 33.7737 31.7317 34.8657H28.5303C28.8696 31.8592 29.564 26.1799 29.9787 25.8825C30.2939 25.657 32.6302 24.8282 33.7756 24.3772C33.9891 24.2939 34.189 24.2157 34.3768 24.1445C34.6194 24.4149 37.1983 29.185 37.3996 33.0623C37.4152 33.664 37.3972 34.2661 37.3456 34.8657V34.8657Z" fill="#323657"/>
<path d="M39.4456 25.2932C39.4456 25.2932 39.5366 26.6022 38.4297 26.6328C37.3227 26.6634 36.4434 25.5998 36.4434 25.5998L38.281 26.0736L39.4001 25.126L39.4456 25.2932Z" fill="#D8D5E0"/>
<path d="M35.618 23.3374C35.618 23.3374 36.6674 24.6841 37.2159 25.1259L36.3173 26.6327L34.7686 24.0005L35.618 23.3374Z" fill="#EAE6F2"/>
<path d="M39.2289 25.3734L38.2812 26.0742C38.2812 26.0742 39.1136 24.5567 39.13 23.8809L39.2289 25.3734Z" fill="#B4B1BA"/>
<path d="M39.1289 23.8809L39.7372 24.3106L40.4152 26.3324L39.2278 25.3734L39.1289 23.8809Z" fill="#EAE6F2"/>
<path d="M42.1444 17.1333C42.1444 17.1333 42.8124 18.7589 42.3756 18.9552C42.0149 19.1167 42.5947 20.7047 42.6651 20.9615C42.7355 21.2183 42.0042 21.3229 41.8363 21.4659C41.6684 21.6089 41.0146 23.5155 40.422 23.5127C39.8294 23.5098 37.281 22.3125 36.6408 21.4886C36.0005 20.6648 35.7643 17.2201 36.3946 15.847C37.0249 14.474 40.962 14.2911 42.1444 17.1333Z" fill="#EEA886"/>
<path d="M42.2744 17.484C42.2744 17.484 43.2967 15.911 41.8874 14.5166C40.478 13.1222 37.4125 14.9869 37.0838 15.0359C36.7552 15.085 34.83 15.4962 35.4703 18.4259C36.0395 21.034 36.0949 21.1023 36.0949 21.1023C36.0949 21.1023 36.8597 19.7235 37.2183 19.5165C37.7775 19.1942 38.9072 19.4048 38.9072 19.4048C38.9072 19.4048 38.5159 17.9058 39.3853 17.7913C40.2547 17.6768 41.4499 17.0749 42.2744 17.484Z" fill="#0E2D3D"/>
<path d="M38.0891 18.4842C38.035 18.2786 37.8827 17.4035 37.1009 17.8254C36.319 18.2473 37.3342 19.9739 37.4566 20.0081C37.579 20.0422 38.5444 20.2137 38.0891 18.4842Z" fill="#EEA886"/>
<path d="M36.7422 21.6055C36.76 21.6496 37.3412 23.0625 39.1255 23.7753C39.1255 23.7412 39.1255 23.7042 39.1255 23.6729C39.1255 23.4972 39.1368 23.3243 39.1468 23.204C39.1504 23.1621 39.1539 23.1258 39.1568 23.0973C39.1561 23.0973 37.2388 22.1967 36.7422 21.6055Z" fill="#A77860"/>
<path d="M121.496 64.8844L100.389 51.7349L97.9803 55.6014L119.087 68.751L121.496 64.8844Z" fill="#435375"/>
<path d="M100.099 52.199L98.8833 51.4434L97.058 54.3801L98.2738 55.1358L100.099 52.199Z" fill="#2D3038"/>
<path d="M97.1485 49.541C97.1216 49.6069 97.0882 49.6693 97.0568 49.7333L99.5818 50.7639C99.6133 50.6999 99.6421 50.6357 99.6713 50.5707L97.1485 49.541ZM69.2699 37.3487C69.239 37.4245 69.2081 37.5002 69.1772 37.576C69.0516 37.8967 68.9357 38.2196 68.8344 38.5458C68.538 39.4571 68.323 40.393 68.1921 41.3424C67.782 44.2958 68.1799 47.3051 69.3437 50.0504C69.3885 50.157 69.4333 50.2637 69.4803 50.365C69.6652 50.778 69.8642 51.1844 70.0824 51.5827C71.9056 54.9256 74.8292 57.5348 78.3571 58.9676C78.4177 58.9924 78.479 59.0174 78.5404 59.0425C81.2384 60.1105 84.1706 60.4475 87.0406 60.0193C90.9759 59.4356 94.5717 57.4608 97.1758 54.4531C97.4434 54.1417 97.6988 53.821 97.9475 53.4887C98.39 52.8901 98.7917 52.2624 99.15 51.6099V51.6099C99.2258 51.4694 99.302 51.3282 99.3743 51.1837C99.4465 51.0391 99.5158 50.9084 99.5817 50.7665C99.6131 50.7025 99.642 50.6382 99.6711 50.5733C99.737 50.4314 99.8 50.2901 99.8613 50.1464C99.8974 50.0578 99.9333 49.9699 99.9695 49.8813C103.106 42.1971 100.058 33.527 93.1447 29.3952C93.0116 29.3144 92.8776 29.2358 92.7396 29.1583C92.5887 29.0755 92.4378 28.9927 92.2843 28.9142C92.1475 28.8425 92.0072 28.7728 91.8678 28.7053C91.5468 28.5478 91.2173 28.4027 90.8848 28.267C90.6016 28.1514 90.3178 28.0435 90.0326 27.9457C89.5445 27.7756 89.0527 27.6341 88.559 27.5103C85.8136 26.8417 82.9431 26.8839 80.2185 27.6329C77.494 28.3818 75.0053 29.8128 72.9874 31.7907C72.9443 31.8315 72.9025 31.8754 72.8619 31.9162C72.8214 31.9571 72.7815 31.9965 72.7446 32.0371C72.5108 32.2721 72.2843 32.5154 72.0715 32.7661C71.5049 33.4215 70.9913 34.121 70.5357 34.8579C70.4119 35.053 70.2955 35.2537 70.1782 35.4567C70.1634 35.4931 70.1405 35.5297 70.1214 35.5634C70.1214 35.5634 70.1195 35.568 70.1177 35.5725C70.1077 35.5895 70.0987 35.6071 70.0909 35.6252C70.0781 35.6442 70.0665 35.6639 70.0561 35.6844L70.0496 35.7003C70.0426 35.7095 70.0367 35.7196 70.0321 35.7302C70.023 35.7449 70.015 35.7602 70.0081 35.7761C69.9878 35.8128 69.9681 35.8481 69.9497 35.8866C69.8309 36.1128 69.7157 36.3432 69.6072 36.5764C69.5943 36.6082 69.5758 36.6404 69.5628 36.6722L69.4923 36.8255C69.4118 36.9967 69.3381 37.1707 69.2661 37.3472L69.2699 37.3487ZM70.7613 43.529L70.7641 43.3534C70.7664 43.2245 70.7706 43.0972 70.7761 42.9669L70.7946 42.6573C70.7994 42.5806 70.8045 42.5032 70.8119 42.4267C70.8137 42.4221 70.8156 42.4176 70.8129 42.4112C70.8131 42.3969 70.8145 42.3827 70.817 42.3687C70.827 42.2402 70.8416 42.1136 70.8584 41.9836L70.8765 41.8354C70.8925 41.6988 70.9136 41.5626 70.9351 41.4256C70.9397 41.4142 70.9385 41.3978 70.9418 41.3832C70.9638 41.2579 70.9845 41.1356 71.0073 41.0062C71.0154 40.9538 71.0258 40.9024 71.037 40.8513C71.0687 40.6955 71.1037 40.5384 71.1405 40.3811C71.2047 40.1069 71.2815 39.8343 71.3638 39.5613C71.3909 39.469 71.4208 39.3761 71.4511 39.2824C71.4632 39.2529 71.4743 39.2256 71.4818 39.1942C71.5247 39.0695 71.568 38.9441 71.6132 38.8203L71.6281 38.7839C71.6392 38.7567 71.6512 38.7271 71.6633 38.6976C71.7066 38.5915 71.7502 38.4848 71.7934 38.3787C71.8367 38.2727 71.8747 38.1795 71.9146 38.0818C72.0818 37.6908 72.2696 37.3088 72.4771 36.9375C72.4961 36.8976 72.5173 36.8588 72.5405 36.8212C72.5404 36.8199 72.5407 36.8186 72.5411 36.8174C72.5416 36.8163 72.5423 36.8152 72.5433 36.8143C72.543 36.8137 72.5428 36.813 72.5428 36.8123C72.5427 36.8116 72.5429 36.8109 72.5431 36.8103C72.5434 36.8097 72.5438 36.8091 72.5443 36.8086C72.5448 36.8081 72.5454 36.8077 72.5461 36.8075C72.5482 36.7987 72.5516 36.7903 72.5562 36.7825L72.5581 36.778C72.56 36.7734 72.5609 36.7712 72.5618 36.7689C73.5634 34.9981 74.9454 33.4715 76.6081 32.2993C78.513 30.9548 80.7254 30.1107 83.0418 29.8449C83.6569 29.7724 84.2763 29.7427 84.8955 29.756C85.0921 29.7593 85.2919 29.7675 85.4901 29.7822C86.6162 29.8516 87.7293 30.0619 88.8031 30.4081C89.1553 30.5174 89.5024 30.6431 89.8493 30.7847C89.953 30.8271 90.0553 30.8688 90.1572 30.9157C90.2776 30.9648 90.3922 31.0196 90.5108 31.0733C90.5945 31.1127 90.678 31.1548 90.7616 31.1968C90.7848 31.2067 90.8074 31.2177 90.8294 31.2298C90.9689 31.2973 91.1079 31.37 91.2442 31.4433L91.3477 31.5014C91.4017 31.5314 91.4572 31.562 91.5103 31.5943C91.5634 31.6266 91.6333 31.6631 91.6938 31.701C91.8309 31.7808 91.9631 31.8639 92.0952 31.947L92.1311 31.9696C92.2341 32.0355 92.3354 32.1034 92.4365 32.1738L92.4551 32.1867C92.4971 32.2136 92.5395 32.2441 92.5803 32.274C92.6755 32.3394 92.7668 32.4058 92.8576 32.4755C92.899 32.5029 92.9388 32.5324 92.977 32.564C93.0822 32.6441 93.1866 32.7238 93.2902 32.8076C93.3938 32.8914 93.4896 32.9685 93.5823 33.0487C93.628 33.086 93.6729 33.1255 93.7124 33.1628C93.9034 33.3291 94.0903 33.4991 94.2692 33.6755C94.319 33.7223 94.3674 33.7703 94.4163 33.8194C94.4914 33.8951 94.5641 33.9681 94.6377 34.0476C94.7005 34.1103 94.7564 34.1703 94.8123 34.2346C94.8989 34.3256 94.9821 34.4205 95.0648 34.5144C95.1588 34.6217 95.2492 34.7292 95.3369 34.8392C95.4391 34.9631 95.537 35.087 95.6329 35.2136C95.8339 35.4724 96.0199 35.7418 96.1989 36.0154C96.2748 36.1347 96.3495 36.2483 96.4212 36.3712C96.5142 36.5178 96.6011 36.6664 96.6815 36.8158C96.7562 36.9488 96.8305 37.0851 96.9011 37.2217C96.9717 37.3583 97.0458 37.5035 97.1136 37.6469C97.9461 39.388 98.4047 41.2842 98.4601 43.2133C98.5154 45.1424 98.1662 47.0618 97.435 48.8478C97.3988 48.9364 97.363 49.0242 97.3268 49.1129C97.2678 49.2575 97.2025 49.3979 97.1344 49.5388C97.1075 49.6047 97.0741 49.6671 97.0427 49.7311C96.9723 49.8711 96.9025 50.0096 96.8285 50.1455C96.6213 50.5363 96.397 50.9133 96.1557 51.2766C95.8948 51.6712 95.6133 52.0518 95.3122 52.4167C95.0756 52.7062 94.8265 52.9853 94.5686 53.2494C92.6678 55.2147 90.228 56.5736 87.5565 57.1549C84.8849 57.7363 82.101 57.5141 79.5555 56.5164C79.4941 56.4913 79.4328 56.4663 79.3722 56.4416C77.0421 55.4916 75.0146 53.9249 73.5075 51.9098C72.0004 49.8947 71.0705 47.5072 70.8177 45.0036C70.8054 44.8714 70.7936 44.7402 70.7835 44.6089L70.7686 44.3598C70.7611 44.2613 70.7593 44.1661 70.7542 44.0659L70.7513 43.9693C70.7504 43.8806 70.7467 43.7987 70.7477 43.7116L70.7613 43.529Z" fill="#435375"/>
<path opacity="0.3" d="M97.1252 37.6475C97.1252 37.6475 81.3207 28.7894 70.8265 45.0067C70.4989 41.7594 71.3277 38.5006 73.1671 35.8044C75.0064 33.1083 77.7382 31.1478 80.8813 30.2683C84.0244 29.3887 87.377 29.6466 90.3485 30.9966C93.3201 32.3465 95.7199 34.7018 97.1252 37.6475V37.6475Z" fill="#869AC2"/>
</svg>
